<?xml version="1.0" encoding="UTF-8" standalone="no"?>
<!-- Created with Inkscape (http://www.inkscape.org/) -->

<svg
   xmlns:dc="http://purl.org/dc/elements/1.1/"
   xmlns:cc="http://creativecommons.org/ns#"
   xmlns:rdf="http://www.w3.org/1999/02/22-rdf-syntax-ns#"
   xmlns:svg="http://www.w3.org/2000/svg"
   xmlns="http://www.w3.org/2000/svg"
   xmlns:sodipodi="http://sodipodi.sourceforge.net/DTD/sodipodi-0.dtd"
   xmlns:inkscape="http://www.inkscape.org/namespaces/inkscape"
   width="12.931422mm"
   height="14.506531mm"
   viewBox="0 0 45.82 51.401093"
   id="svg5025"
   version="1.1"
   inkscape:version="0.91 r13725"
   sodipodi:docname="logo_circle_4.svg">
  <defs
     id="defs5027">
    <clipPath
       id="clipPath4174"
       clipPathUnits="userSpaceOnUse">
      <path
         inkscape:connector-curvature="0"
         id="path4176"
         d="m 0,541.333 253.333,0 L 253.333,0 0,0 0,541.333 Z" />
    </clipPath>
    <clipPath
       id="clipPath4200"
       clipPathUnits="userSpaceOnUse">
      <path
         inkscape:connector-curvature="0"
         id="path4202"
         d="m 0,541.333 253.333,0 L 253.333,0 0,0 0,541.333 Z" />
    </clipPath>
  </defs>
  <sodipodi:namedview
     id="base"
     pagecolor="#ffffff"
     bordercolor="#666666"
     borderopacity="1.0"
     inkscape:pageopacity="0.0"
     inkscape:pageshadow="2"
     inkscape:zoom="7.919596"
     inkscape:cx="32.781201"
     inkscape:cy="21.543171"
     inkscape:document-units="px"
     inkscape:current-layer="layer1"
     showgrid="false"
     inkscape:window-width="1920"
     inkscape:window-height="1017"
     inkscape:window-x="1912"
     inkscape:window-y="-8"
     inkscape:window-maximized="1"
     fit-margin-top="0"
     fit-margin-left="0"
     fit-margin-right="0"
     fit-margin-bottom="0" />
  <metadata
     id="metadata5030">
    <rdf:RDF>
      <cc:Work
         rdf:about="">
        <dc:format>image/svg+xml</dc:format>
        <dc:type
           rdf:resource="http://purl.org/dc/dcmitype/StillImage" />
        <dc:title></dc:title>
      </cc:Work>
    </rdf:RDF>
  </metadata>
  <g
     inkscape:label="Layer 1"
     inkscape:groupmode="layer"
     id="layer1"
     transform="translate(-147.41976,-968.34367)">
    <g
       transform="matrix(0.97809323,0,0,1,-411.66281,494.205)"
       id="g5738">
      <g
         transform="matrix(1.25,0,0,-1.25,445.48458,711.69967)"
         id="g4196">
        <g
           clip-path="url(#clipPath4200)"
           id="g4198">
          <g
             transform="translate(138.373,169.6318)"
             id="g4204">
            <path
               inkscape:connector-curvature="0"
               id="path4206"
               style="fill:#d8e037;fill-opacity:1;fill-rule:nonzero;stroke:none"
               d="m 0,0 c 0,-11.279 -8.389,-20.428 -18.738,-20.428 -10.349,0 -18.739,9.149 -18.739,20.428 0,11.274 8.39,20.417 18.739,20.417 C -8.389,20.417 0,11.274 0,0" />
          </g>
        </g>
      </g>
      <g
         transform="matrix(1.25,0,0,-1.25,594.3682,510.99529)"
         id="g4240">
        <path
           inkscape:connector-curvature="0"
           id="path4242"
           style="fill:#ffffff;fill-opacity:1;fill-rule:nonzero;stroke:none"
           d="m 0,0 c -0.086,0.161 -0.319,0.161 -0.408,0 l -0.384,-0.698 c -0.085,-0.157 0.027,-0.346 0.205,-0.346 l 0.766,0 c 0.178,0 0.29,0.189 0.204,0.346 L 0,0 Z" />
      </g>
      <g
         transform="matrix(1.25,0,0,-1.25,591.55395,507.68967)"
         id="g4244">
        <path
           inkscape:connector-curvature="0"
           id="path4246"
           style="fill:#ffffff;fill-opacity:1;fill-rule:nonzero;stroke:none"
           d="m 0,0 c -0.743,0 -1.347,-0.603 -1.347,-1.348 0,-0.745 0.604,-1.349 1.347,-1.349 0.747,0 1.35,0.604 1.35,1.349 C 1.35,-0.603 0.747,0 0,0" />
      </g>
      <g
         transform="matrix(1.25,0,0,-1.2191377,600.23071,510.3871)"
         id="g4248">
        <path
           inkscape:connector-curvature="0"
           id="path4250"
           style="fill:#ffffff;fill-opacity:1;fill-rule:nonzero;stroke:none"
           d="m 0,0 c 0,-0.12 -0.057,-0.232 -0.155,-0.309 l -2.104,-1.595 0,-1.32 c 0,-0.213 -0.174,-0.386 -0.388,-0.386 l -0.315,0 c -0.214,0 -0.389,0.173 -0.389,0.386 l 0,0.535 c 0,0.136 -0.11,0.248 -0.246,0.248 -0.136,0 -0.246,-0.112 -0.246,-0.248 l 0,-0.535 c 0,-0.213 -0.175,-0.386 -0.39,-0.386 l -0.014,0 c -0.215,0 -0.388,0.173 -0.388,0.386 l 0,0.535 c 0,0.136 -0.11,0.248 -0.247,0.248 l -0.025,0 c -0.137,0 -0.246,-0.112 -0.246,-0.248 l 0,-0.535 c 0,-0.213 -0.174,-0.386 -0.39,-0.386 l -0.012,0 c -0.216,0 -0.39,0.173 -0.39,0.386 l 0,0.535 c 0,0.136 -0.11,0.248 -0.247,0.248 -0.134,0 -0.246,-0.112 -0.246,-0.248 l 0,-0.535 c 0,-0.213 -0.173,-0.386 -0.389,-0.386 l -0.313,0 c -0.215,0 -0.388,0.173 -0.388,0.386 l 0,1.317 -2.104,1.595 C -9.73,-0.234 -9.787,-0.123 -9.787,0 l 0,2.305 c 0,2.704 2.191,4.895 4.892,4.895 C -2.192,7.2 -0.001,5.009 0,2.31 L 0,0 Z m 2.025,15.247 -3.853,0 0,1.423 0.873,-0.871 2.933,2.932 -1.571,1.571 -2.863,-2.865 -5.153,0 0,-2.19 -3.854,0 c -2.902,0 -5.254,-2.351 -5.254,-5.254 l 0,-17.167 c 0,-2.902 2.352,-5.255 5.254,-5.255 l 13.488,0 c 2.904,0 5.256,2.353 5.256,5.255 l 0,17.167 c 0,2.903 -2.352,5.254 -5.256,5.254" />
      </g>
      <g
         transform="matrix(1.25,0,0,-1.25,596.66933,507.68967)"
         id="g4252">
        <path
           inkscape:connector-curvature="0"
           id="path4254"
           style="fill:#ffffff;fill-opacity:1;fill-rule:nonzero;stroke:none"
           d="m 0,0 c -0.744,0 -1.349,-0.603 -1.349,-1.348 0,-0.745 0.605,-1.349 1.349,-1.349 0.746,0 1.349,0.604 1.349,1.349 C 1.349,-0.603 0.745,0 0,0" />
      </g>
    </g>
  </g>
</svg>
