<?xml version="1.0" encoding="UTF-8" standalone="no"?>
<!-- Created with Inkscape (http://www.inkscape.org/) -->

<svg
   xmlns:dc="http://purl.org/dc/elements/1.1/"
   xmlns:cc="http://creativecommons.org/ns#"
   xmlns:rdf="http://www.w3.org/1999/02/22-rdf-syntax-ns#"
   xmlns:svg="http://www.w3.org/2000/svg"
   xmlns="http://www.w3.org/2000/svg"
   xmlns:sodipodi="http://sodipodi.sourceforge.net/DTD/sodipodi-0.dtd"
   xmlns:inkscape="http://www.inkscape.org/namespaces/inkscape"
   width="45.82"
   height="48.355"
   viewBox="0 0 45.82 48.355001"
   id="svg5025"
   version="1.1"
   inkscape:version="0.91 r13725"
   sodipodi:docname="logo_circle_2.svg">
  <defs
     id="defs5027" />
  <sodipodi:namedview
     id="base"
     pagecolor="#ffffff"
     bordercolor="#666666"
     borderopacity="1.0"
     inkscape:pageopacity="0.0"
     inkscape:pageshadow="2"
     inkscape:zoom="5.6"
     inkscape:cx="25.160645"
     inkscape:cy="-0.12021014"
     inkscape:document-units="px"
     inkscape:current-layer="layer1"
     showgrid="false"
     inkscape:window-width="1920"
     inkscape:window-height="1017"
     inkscape:window-x="1912"
     inkscape:window-y="-8"
     inkscape:window-maximized="1"
     fit-margin-top="0"
     fit-margin-left="0"
     fit-margin-right="0"
     fit-margin-bottom="0"
     units="px" />
  <metadata
     id="metadata5030">
    <rdf:RDF>
      <cc:Work
         rdf:about="">
        <dc:format>image/svg+xml</dc:format>
        <dc:type
           rdf:resource="http://purl.org/dc/dcmitype/StillImage" />
        <dc:title></dc:title>
      </cc:Work>
    </rdf:RDF>
  </metadata>
  <g
     inkscape:label="Layer 1"
     inkscape:groupmode="layer"
     id="layer1"
     transform="translate(-213.97077,-834.23566)">
    <g
       id="g4142">
      <g
         transform="matrix(1.25,0,0,-1.25,235.0974,838.30517)"
         id="g4232">
        <path
           inkscape:connector-curvature="0"
           id="path4234"
           style="fill:#ef5895;fill-opacity:1;fill-rule:nonzero;stroke:none"
           d="M 0,0 0,0.904 C 0,1.57 0.54,2.11 1.206,2.11 1.873,2.11 2.412,1.57 2.412,0.904 L 2.412,0 C 8.783,-0.321 14.352,-3.177 17.787,-7.402 14.771,-1.086 8.587,3.256 1.427,3.256 -5.27,3.256 -11.11,-0.545 -14.308,-6.203 -10.842,-2.642 -5.748,-0.289 0,0" />
      </g>
      <g
         transform="matrix(1.25,0,0,-1.25,256.62702,856.79941)"
         id="g4236">
        <path
           inkscape:connector-curvature="0"
           id="path4238"
           style="fill:#ef5895;fill-opacity:1;fill-rule:nonzero;stroke:none"
           d="m 0,0 c -2.578,0 -4.729,-1.076 -5.229,-2.508 l -0.216,0 c -0.487,1.44 -2.645,2.528 -5.234,2.528 -1.668,0 -3.154,-0.453 -4.133,-1.159 l 0,-12.119 c 0,-3.016 -2.453,-5.468 -5.469,-5.468 -3.015,0 -5.469,2.452 -5.469,5.468 0,0.668 0.541,1.206 1.206,1.206 0.668,0 1.207,-0.538 1.207,-1.206 0,-1.684 1.371,-3.054 3.056,-3.054 1.685,0 3.056,1.37 3.056,3.054 l 0,12.099 C -18.204,-0.452 -19.69,0 -21.358,0 c -2.579,0 -4.73,-1.076 -5.23,-2.508 l -0.214,0 c -0.488,1.44 -2.646,2.528 -5.235,2.528 -0.726,0 -1.407,-0.099 -2.038,-0.255 -0.018,-0.351 -0.05,-0.7 -0.05,-1.056 0,-10.682 8.205,-19.342 18.328,-19.342 10.123,0 18.328,8.66 18.328,19.342 0,0.311 -0.03,0.611 -0.043,0.917 C 1.742,-0.14 0.902,0 0,0" />
      </g>
    </g>
  </g>
</svg>
