<?xml version="1.0" encoding="UTF-8" standalone="no"?>
<svg
   xmlns:dc="http://purl.org/dc/elements/1.1/"
   xmlns:cc="http://creativecommons.org/ns#"
   xmlns:rdf="http://www.w3.org/1999/02/22-rdf-syntax-ns#"
   xmlns:svg="http://www.w3.org/2000/svg"
   xmlns="http://www.w3.org/2000/svg"
   xmlns:sodipodi="http://sodipodi.sourceforge.net/DTD/sodipodi-0.dtd"
   xmlns:inkscape="http://www.inkscape.org/namespaces/inkscape"
   version="1.1"
   width="80.022003"
   height="55.846817"
   viewBox="0 0 80.022003 55.846817"
   id="svg2"
   inkscape:version="0.91 r13725"
   sodipodi:docname="bomb-smallka.svg">
  <metadata
     id="metadata10">
    <rdf:RDF>
      <cc:Work
         rdf:about="">
        <dc:format>image/svg+xml</dc:format>
        <dc:type
           rdf:resource="http://purl.org/dc/dcmitype/StillImage" />
        <dc:title />
      </cc:Work>
    </rdf:RDF>
  </metadata>
  <defs
     id="defs8" />
  <sodipodi:namedview
     pagecolor="#ffffff"
     bordercolor="#666666"
     borderopacity="1"
     objecttolerance="10"
     gridtolerance="10"
     guidetolerance="10"
     inkscape:pageopacity="0"
     inkscape:pageshadow="2"
     inkscape:window-width="1516"
     inkscape:window-height="866"
     id="namedview6"
     showgrid="false"
     inkscape:zoom="6.9532167"
     inkscape:cx="24.191265"
     inkscape:cy="5.7984855"
     inkscape:window-x="2221"
     inkscape:window-y="0"
     inkscape:window-maximized="0"
     inkscape:current-layer="svg2"
     fit-margin-top="0"
     fit-margin-left="0"
     fit-margin-right="0"
     fit-margin-bottom="0" />
  <rect
     style="fill:#e8e9ed;fill-opacity:1;stroke:none;stroke-opacity:1"
     id="rect4197"
     width="40.02"
     height="10.068"
     x="18.98402"
     y="45.778816" />
  <path
     d="M 60.957108,21.395554 55.966222,15.708906 56.661656,8.181762 49.277606,6.504611 45.411654,0 38.457108,2.986354 31.50256,0 l -3.865909,6.504611 -7.384098,1.656743 0.695475,7.527303 -4.99092,5.706897 4.99092,5.686348 -0.695475,7.547706 7.384098,1.677151 3.865909,6.504595 6.954548,-3.006746 6.954546,2.986201 3.865952,-6.504455 7.38405,-1.677305 -0.695434,-7.527147 4.990886,-5.686348 z"
     id="path4"
     style="fill:#7360ab;fill-opacity:1"
     inkscape:connector-curvature="0" />
  <rect
     style="fill:#e8e9ed;fill-opacity:1;stroke:none;stroke-opacity:1"
     id="rect4193"
     width="80.022003"
     height="10.016"
     x="0"
     y="36.194984" />
  <path
     id="path4156"
     d="m 31.818868,10.109777 c -0.777529,0.02259 -1.563942,0.349801 -2.246835,0.841733 -0.83267,0.599712 -1.524978,1.460402 -1.804387,2.450969 -0.279348,0.990642 -0.0931,2.129161 0.781245,3.065964 0.704785,0.754165 0.967035,1.41813 0.994336,1.958359 0.02684,0.54027 -0.17145,0.98171 -0.501593,1.32527 -0.659603,0.686833 -1.802678,0.870112 -2.44196,0.294734 l -0.604436,0.672319 c 1.074806,0.967305 2.73736,0.659672 3.69779,-0.340049 0.479883,-0.499912 0.794366,-1.200895 0.753756,-1.997594 -0.04099,-0.796795 -0.42681,-1.663751 -1.237562,-2.531159 -0.681993,-0.72976 -0.77942,-1.463888 -0.57114,-2.203092 0.208612,-0.739192 0.774425,-1.467121 1.462864,-1.962782 0.688221,-0.495794 1.48467,-0.742927 2.08974,-0.6499 0.46261,0.06992 0.849342,0.29275 1.11508,0.843397 l 0.770752,-0.444478 c -0.404379,-0.746199 -1.044183,-1.183521 -1.748428,-1.291903 -0.116376,-0.0056 -0.235312,-0.02835 -0.353349,-0.0312 -0.05153,-6.76e-4 -0.104307,-6.76e-4 -0.156285,0 z m 5.234434,0.648298 -5.80859,3.354587 1.204478,2.086818 c 0.726616,-0.875613 1.617122,-1.639154 2.659301,-2.240924 0.996793,-0.575551 2.052353,-0.957553 3.12341,-1.157445 l -1.178599,-2.043036 z m 2.902601,2.775815 c -0.04842,0.0033 -0.0995,0.0033 -0.149478,0.0033 -1.445518,0.0398 -2.90354,0.429246 -4.246061,1.204374 -4.295847,2.480553 -5.766513,7.956908 -3.289597,12.247339 2.476933,4.290256 7.954558,5.754589 12.250354,3.274283 4.295489,-2.480522 5.764811,-7.956898 3.288069,-12.247307 -1.676272,-2.904236 -4.724742,-4.514124 -7.853069,-4.482354 z"
     inkscape:connector-curvature="0"
     style="fill:#fec70a" />
  <text
     xml:space="preserve"
     style="font-style:normal;font-variant:normal;font-weight:900;font-stretch:normal;font-size:7.5px;line-height:125%;font-family:Arial;-inkscape-font-specification:'Arial Heavy';text-align:center;letter-spacing:0px;word-spacing:0px;text-anchor:middle;fill:#000000;fill-opacity:1;stroke:none;stroke-width:1px;stroke-linecap:butt;stroke-linejoin:miter;stroke-opacity:1;"
     x="39.173401"
     y="43.756886"
     id="text4165"
     sodipodi:linespacing="125%"><tspan
       sodipodi:role="line"
       x="39.173401"
       y="43.756886"
       id="tspan4169"
       style="font-style:normal;font-variant:normal;font-weight:900;font-stretch:normal;font-size:7.5px;font-family:Arial;-inkscape-font-specification:'Arial Heavy';fill:#000000;fill-opacity:1;stroke:none;stroke-opacity:1;">ВЕЩЬ ПРОСТО</tspan><tspan
       sodipodi:role="line"
       x="39.173401"
       y="53.131886"
       style="font-style:normal;font-variant:normal;font-weight:900;font-stretch:normal;font-size:7.5px;font-family:Arial;-inkscape-font-specification:'Arial Heavy';fill:#000000;fill-opacity:1;stroke:none;stroke-opacity:1;"
       id="tspan4201">БОМБА!</tspan></text>
</svg>
